#!OML:ASF F:\VICON\USERDATA\INSTALL\Justin_Nancy\Justin_Nancy.ASF
:FULLY-SPECIFIED
:DEGREES
79
root 1.90212 17.4442 -16.3689 -3.68778 -6.62138 2.62499
lowerback 6.39268 2.19039 -2.23773
upperback 0.393151 2.76066 0.161341
thorax -3.29004 1.40615 1.16688
lowerneck -16.8745 -4.03364 -9.99294
upperneck 20.1226 -4.55433 7.04991
head 9.54074 -2.11834 3.50889
rclavicle -3.72197e-014 4.37326e-015
rhumerus -28.5078 -11.6885 -81.1346
rradius 35.8031
rwrist 2.83567
rhand -18.4135 10.7742
rfingers 7.12502
rthumb 7.87121 -19.0592
lclavicle -3.72197e-014 4.37326e-015
lhumerus -37.7258 29.3732 72.1061
lradius 16.4325
lwrist -19.5334
lhand -15.8364 21.7374
lfingers 7.12502
lthumb 10.3579 51.4623
rfemur -4.95947 1.97318 19.6134
rtibia 63.5937
rfoot 8.58201 1.64623
rtoes 8.31139
lfemur -16.3966 -1.95184 -26.6317
ltibia 26.8217
lfoot -3.67831 3.19272
ltoes 5.21474
80
root 1.90258 17.456 -16.2163 -3.73663 -6.19956 2.96343
lowerback 6.69387 2.04593 -2.6603
upperback 0.313002 2.52613 0.123412
thorax -3.5495 1.29872 1.37392
lowerneck -16.9467 -3.98777 -9.93219
upperneck 20.0557 -4.46083 6.90048
head 9.5168 -2.08466 3.45706
rclavicle 3.0354e-014 -1.51076e-014
rhumerus -28.7818 -11.6504 -80.9991
rradius 35.0067
rwrist 3.00827
rhand -18.5617 11.4499
rfingers 7.12502
rthumb 7.72824 -18.3889
lclavicle 3.0354e-014 -1.51076e-014
lhumerus -37.1299 26.4645 74.1111
lradius 17.3991
lwrist -16.5803
lhand -15.7189 21.9146
lfingers 7.12502
lthumb 10.4713 51.6338
rfemur -6.50395 1.38721 19.0686
rtibia 65.2721
rfoot 6.86195 0.23001
rtoes 7.84056
lfemur -15.657 -2.07339 -27.1956
ltibia 26.6136
lfoot -4.10101 3.1773
ltoes 4.43542
81
root 1.91383 17.4811 -16.0161 -4.34439 -6.93576 3.22891
lowerback 6.73473 2.2569 -2.6697
upperback 0.700092 2.80683 0.0477623
thorax -3.18091 1.43008 1.2807
lowerneck -17.1543 -3.94515 -9.98388
upperneck 19.8747 -4.36166 6.91889
head 9.48413 -2.03499 3.48158
rclavicle -5.38023e-014 9.14409e-015
rhumerus -28.6124 -12.3094 -80.6446
rradius 33.1989
rwrist 4.49897
rhand -18.572 15.7524
rfingers 7.12502
rthumb 7.71826 -14.0867
lclavicle -5.38023e-014 9.14409e-015
lhumerus -36.3267 25.0996 75.2311
lradius 17.7509
lwrist -15.3247
lhand -15.6224 23.5438
lfingers 7.12502
lthumb 10.5644 53.2583
rfemur -7.36815 1.82758 18.6409
rtibia 66.5971
rfoot 5.5776 -0.825057
rtoes 5.07806
lfemur -14.1212 -1.67953 -27.5559
ltibia 26.4881
lfoot -4.89824 3.7394
ltoes 6.07436
82
root 1.9179 17.4892 -15.8396 -4.67565 -7.29143 3.51073
lowerback 6.75714 2.31751 -2.85208
upperback 0.951463 2.87445 -0.01168
thorax -2.94231 1.46039 1.32014
lowerneck -17.259 -3.90285 -9.99817
upperneck 19.6785 -4.26997 6.88045
head 9.42574 -1.99392 3.47915
rclavicle 2.02046e-014 -5.96354e-015
rhumerus -28.504 -12.0814 -80.8019
rradius 32.9629
rwrist 4.63129
rhand -17.9428 14.3544
rfingers 7.12502
rthumb 8.32553 -15.4615
lclavicle 2.02046e-014 -5.96354e-015
lhumerus -35.735 24.4835 75.8768
lradius 18.1837
lwrist -15.087
lhand -15.1897 25.7048
lfingers 7.12502
lthumb 10.9817 55.3976
rfemur -8.59495 1.9636 18.1986
rtibia 67.802
rfoot 4.82954 -2.00293
rtoes 4.31628
lfemur -13.0613 -1.56105 -27.9467
ltibia 26.4149
lfoot -5.45425 4.25954
ltoes 9.44411
83
root 1.91977 17.4844 -15.6792 -4.76993 -7.38802 3.58041
lowerback 6.77642 2.29999 -2.95241
upperback 1.04979 2.84646 0.0541109
thorax -2.85837 1.4458 1.44837
lowerneck -17.1303 -3.87809 -10.0982
upperneck 19.3681 -4.19385 6.82066
head 9.28838 -1.97188 3.48092
rclavicle 1.63718e-014 5.96354e-015
rhumerus -28.6387 -12.21 -80.6741
rradius 32.6538
rwrist 5.54265
rhand -17.2188 14.1544
rfingers 7.12502
rthumb 9.02423 -15.6326
lclavicle 1.63718e-014 5.96354e-015
lhumerus -35.2212 23.9861 76.5233
lradius 18.6835
lwrist -15.3145
lhand -13.6049 29.0529
lfingers 7.12502
lthumb 12.51 58.6584
rfemur -9.97256 1.82003 18.0014
rtibia 68.8589
rfoot 4.20081 -3.24113
rtoes 3.71161
lfemur -12.3966 -1.59505 -28.1483
ltibia 26.4287
lfoot -6.09388 4.62833
ltoes 11.7186
84
root 1.91828 17.4885 -15.5239 -4.67475 -7.19081 3.67333
lowerback 6.70042 2.20685 -3.09868
upperback 1.05978 2.71583 0.0886112
thorax -2.80771 1.38175 1.58145
lowerneck -16.9525 -3.87062 -10.0937
upperneck 19.1062 -4.14354 6.60827
head 9.15632 -1.97146 3.40937
rclavicle -2.52208e-014 1.19271e-014
rhumerus -28.8337 -12.4026 -80.5
rradius 32.225
rwrist 6.51087
rhand -16.9503 14.0821
rfingers 7.12502
rthumb 9.28331 -15.6936
lclavicle -2.52208e-014 1.19271e-014
lhumerus -34.7082 23.303 77.1717
lradius 19.3069
lwrist -15.7689
lhand -11.5314 32.4417
lfingers 7.12502
lthumb 14.5085 61.9144
rfemur -11.5357 1.42246 17.787
rtibia 69.7587
rfoot 3.71026 -4.53068
rtoes 2.34494
lfemur -11.9283 -1.63918 -28.3653
ltibia 26.4698
lfoot -6.8339 4.54723
ltoes 5.09901
85
root 1.90729 17.4932 -15.3978 -4.27581 -6.32865 3.75093
lowerback 6.8092 1.86555 -3.34085
upperback 0.873212 2.23832 0.130838
thorax -3.04746 1.15247 1.79902
lowerneck -16.7989 -3.81287 -10.1089
upperneck 18.8628 -4.02586 6.43263
head 9.03068 -1.93633 3.36361
rclavicle -1.13245e-014 -5.56597e-015
rhumerus -28.95 -12.8753 -80.2925
rradius 31.514
rwrist 7.67656
rhand -17.1059 13.6678
rfingers 7.12502
rthumb 9.13315 -16.1144
lclavicle -1.13245e-014 -5.56597e-015
lhumerus -34.2902 22.7795 77.6892
lradius 19.6214
lwrist -15.2483
lhand -12.2148 31.6122
lfingers 7.12502
lthumb 13.85 61.1311
rfemur -13.4773 0.500726 17.6021
rtibia 70.5273
rfoot 3.10872 -5.61966
rtoes 2.51312
lfemur -11.8778 -1.79969 -28.5503
ltibia 26.5149
lfoot -7.21798 3.96079
ltoes 5.4627
86
root 1.90624 17.4957 -15.2476 -4.41104 -5.97845 3.85266
lowerback 7.02918 1.67184 -3.412
upperback 0.916359 1.96755 0.142848
thorax -3.11298 1.01899 1.8726
lowerneck -16.7508 -3.65006 -10.1503
upperneck 18.8436 -3.78482 6.39726
head 8.99341 -1.8308 3.39014
rclavicle 1.47411e-014 -8.74653e-015
rhumerus -29.1686 -13.3517 -80.0775
rradius 30.8776
rwrist 8.82252
rhand -17.1503 13.7744
rfingers 7.12502
rthumb 9.09029 -16.0097
lclavicle 1.47411e-014 -8.74653e-015
lhumerus -33.8151 22.4459 78.0862
lradius 19.854
lwrist -15.0342
lhand -12.5145 31.466
lfingers 7.12502
lthumb 13.5612 61.0044
rfemur -14.6974 0.0682877 17.3565
rtibia 71.022
rfoot 2.36242 -6.40042
rtoes 4.80511
lfemur -11.0994 -1.83373 -28.7796
ltibia 26.4244
lfoot -7.69764 3.8044
ltoes 5.83055
87
root 1.90216 17.5024 -15.1013 -4.37402 -5.3609 3.82682
lowerback 7.17916 1.46035 -3.35834
upperback 0.872609 1.68327 0.129839
thorax -3.22334 0.879113 1.85343
lowerneck -16.8316 -3.63057 -10.0606
upperneck 19.0677 -3.74859 6.25216
head 9.07739 -1.82407 3.33213
rclavicle 3.62782e-014 2.38542e-015
rhumerus -29.6897 -13.9915 -79.8222
rradius 30.5249
rwrist 9.78668
rhand -17.1114 14.0994
rfingers 7.12502
rthumb 9.12782 -15.683
lclavicle 3.62782e-014 2.38542e-015
lhumerus -33.3586 22.0891 78.3086
lradius 19.8811
lwrist -15.1787
lhand -12.7447 30.6614
lfingers 7.12502
lthumb 13.3392 60.2144
rfemur -16.0253 -0.636373 17.251
rtibia 71.3174
rfoot 1.60024 -7.0148
rtoes 6.60699
lfemur -10.5228 -2.0583 -28.8805
ltibia 26.4203
lfoot -8.34031 3.59672
ltoes 5.59967
88
root 1.9093 17.5015 -14.9241 -4.30648 -5.42651 4.024
lowerback 6.76777 1.45321 -3.39611
upperback 0.9751 1.6869 0.0696869
thorax -2.88681 0.874891 1.82306
lowerneck -17.0193 -3.6459 -9.94807
upperneck 19.2191 -3.72933 6.0044
head 9.15549 -1.8322 3.2303
rclavicle -1.73812e-014 -1.15295e-014
rhumerus -30.0466 -14.6198 -79.5361
rradius 30.1194
rwrist 10.7113
rhand -17.0578 14.223
rfingers 7.12502
rthumb 9.1796 -15.5572
lclavicle -1.73812e-014 -1.15295e-014
lhumerus -32.8511 21.8522 78.5649
lradius 20.0013
lwrist -15.8519
lhand -12.6927 30.1957
lfingers 7.12502
lthumb 13.3894 59.7454
rfemur -17.3939 -0.712138 16.8904
rtibia 71.4162
rfoot 0.563778 -7.32087
rtoes 7.27252
lfemur -9.94257 -2.08715 -29.246
ltibia 26.444
lfoot -8.92892 3.93572
ltoes 5.4426
89
root 1.89629 17.4847 -14.799 -4.22803 -4.58992 4.08134
lowerback 7.12021 1.16357 -3.64488
upperback 0.932928 1.26974 0.138033
thorax -3.11018 0.674542 2.06654
lowerneck -17.1245 -3.59462 -9.88478
upperneck 19.2411 -3.61807 5.80025
head 9.16774 -1.79618 3.16287
rclavicle 1.36167e-014 7.95139e-016
rhumerus -30.23 -15.1336 -79.2147
rradius 29.5962
rwrist 11.1246
rhand -17.0706 14.2864
rfingers 7.12502
rthumb 9.1672 -15.4944
lclavicle 1.36167e-014 7.95139e-016
lhumerus -32.21 21.0079 79.1879
lradius 20.3
lwrist -15.8004
lhand -12.5357 29.9013
lfingers 7.12502
lthumb 13.5408 59.441
rfemur -18.7496 -1.55157 16.8029
rtibia 71.394
rfoot -0.559791 -7.67369
rtoes 7.56416
lfemur -9.62599 -2.27921 -29.3792
ltibia 26.5379
lfoot -9.33959 3.39951
ltoes 5.8605
90
root 1.89107 17.466 -14.6517 -4.22285 -4.20051 4.30165
lowerback 7.29636 1.02507 -3.87339
upperback 0.846507 1.0569 0.102844
thorax -3.28817 0.575668 2.17658
lowerneck -16.931 -3.50621 -9.80478
upperneck 19.2705 -3.49847 5.62674
head 9.12784 -1.75639 3.10646
rclavicle 1.00635e-014 -1.59028e-015
rhumerus -30.6291 -15.9526 -78.8363
rradius 29.0558
rwrist 11.5785
rhand -17.3146 14.0842
rfingers 7.12502
rthumb 8.93181 -15.7068
lclavicle 1.00635e-014 -1.59028e-015
lhumerus -31.7082 19.9548 79.8161
lradius 20.2482
lwrist -13.9415
lhand -13.9984 27.9961
lfingers 7.12502
lthumb 12.1307 57.6244
rfemur -19.9871 -1.96644 16.4779
rtibia 71.1607
rfoot -1.72384 -7.88434
rtoes 8.41422
lfemur -9.18267 -2.29435 -29.7229
ltibia 26.723
lfoot -9.91705 3.33986
ltoes 5.17694
91
root 1.88845 17.453 -14.4992 -4.15153 -3.83557 4.57021
lowerback 7.25826 0.885996 -4.13983
upperback 0.754378 0.849079 0.0667248
thorax -3.35187 0.478358 2.31002
lowerneck -16.6626 -3.41636 -9.75028
upperneck 19.36 -3.38524 5.47867
head 9.09683 -1.72045 3.06348
rclavicle -2.54693e-016 -2.46493e-014
rhumerus -31.104 -16.8245 -78.3407
rradius 28.5284
rwrist 12.0477
rhand -17.1812 13.7823
rfingers 7.12502
rthumb 9.0605 -16.0032
lclavicle -2.54693e-016 -2.46493e-014
lhumerus -31.4213 19.7672 80.0057
lradius 20.5864
lwrist -14.261
lhand -12.9989 29.6095
lfingers 7.12502
lthumb 13.0942 59.1784
rfemur -21.1946 -2.37798 16.0917
rtibia 70.6908
rfoot -2.73213 -7.96798
rtoes 8.03382
lfemur -8.8321 -2.40441 -30.1304
ltibia 27.0581
lfoot -10.5815 3.39688
ltoes 3.74504
